/* XPM */
static char *_614190760768[] = {
/* columns rows colors chars-per-pixel */
"40 40 194 2 ",
"   c #0E0E10",
".  c #121213",
"X  c #1B1B1D",
"o  c #070709",
"O  c #1F1F21",
"+  c #232324",
"@  c #2C2C2D",
"#  c #272629",
"$  c #2F2F31",
"%  c #312F32",
"&  c #343435",
"*  c #363638",
"=  c #383639",
"-  c #3B3B3C",
";  c #3E3E40",
":  c #434344",
">  c #464648",
",  c #4A4A4B",
"<  c #4E4E50",
"1  c #545454",
"2  c #575759",
"3  c #5B5B5C",
"4  c #5F5F61",
"5  c #605E61",
"6  c #636364",
"7  c #676769",
"8  c #6B6B6C",
"9  c #686669",
"0  c #6F6F71",
"q  c #716F71",
"w  c #737374",
"e  c #777779",
"r  c #797779",
"t  c #7B7B7C",
"y  c #E20E1C",
"u  c #FB071A",
"i  c #FF0B28",
"p  c #FA0D25",
"a  c #F91833",
"s  c #FA1728",
"d  c #FD202F",
"f  c #EB293A",
"g  c #F92C3A",
"h  c #F5313D",
"j  c #E8232C",
"k  c #ED2D45",
"l  c #EE2F49",
"z  c #E82742",
"x  c #F42B44",
"c  c #ED304B",
"v  c #ED3744",
"b  c #F3324C",
"n  c #F33B4C",
"m  c #ED3D54",
"M  c #F53B53",
"N  c #F83B53",
"B  c #EC4157",
"V  c #F4425B",
"C  c #F74758",
"Z  c #EF555F",
"A  c #F1575F",
"S  c #F4464F",
"D  c #F74E63",
"F  c #EA5669",
"G  c #F35364",
"H  c #F45369",
"J  c #F85769",
"K  c #F55D72",
"L  c #DD687C",
"P  c #FB717E",
"I  c #F36879",
"U  c #7F7D80",
"Y  c #827F81",
"T  c #CF7F88",
"R  c #DA7E89",
"E  c #F17183",
"W  c #708586",
"Q  c #838384",
"!  c #878688",
"~  c #888689",
"^  c #8C8B8D",
"/  c #8F8F91",
"(  c #918F92",
")  c #929293",
"_  c #979799",
"`  c #9B9B9C",
"'  c #B9999E",
"]  c #9F9EA0",
"[  c #A3A2A4",
"{  c #A7A7A9",
"}  c #AAAAAB",
"|  c #A9A7AA",
" . c #AFAEB1",
".. c #B1AFB2",
"X. c #B4B3B5",
"o. c #B7B6B8",
"O. c #B8B6B9",
"+. c #BBBABC",
"@. c #B8B8B6",
"#. c #B6ADAF",
"$. c #DD818E",
"%. c #DE8C9A",
"&. c #C68395",
"*. c #EA8287",
"=. c #FF838E",
"-. c #F28588",
";. c #E68A95",
":. c #F88E9D",
">. c #E8959F",
",. c #DA9AA5",
"<. c #C29AA2",
"1. c #EA9BA6",
"2. c #E798A4",
"3. c #F594A2",
"4. c #C9ACAE",
"5. c #DBA3AD",
"6. c #DFA7B4",
"7. c #D6B6BB",
"8. c #E3A3AC",
"9. c #F1A1AA",
"0. c #E6ABB3",
"q. c #E8B0BD",
"w. c #FEA6B6",
"e. c #C4C0BF",
"r. c #BEBEC0",
"t. c #C1BFC4",
"y. c #ECBAC5",
"u. c #F0B8C3",
"i. c #B7C6C7",
"p. c #AFD5D6",
"a. c #BDFEFA",
"s. c #C2C2C4",
"d. c #C7C6C9",
"f. c #C9C6C9",
"g. c #CBCBCC",
"h. c #C8C6C7",
"j. c #D6C8CC",
"k. c #CED0CF",
"l. c #D1D1CF",
"z. c #CFCED0",
"x. c #D1CED1",
"c. c #CCD6D8",
"v. c #D3D3D4",
"b. c #D9D5D6",
"n. c #D6D6D8",
"m. c #DAD6DA",
"M. c #D4DBDB",
"N. c #DBDBDC",
"B. c #E0DDDF",
"V. c #E8DEDF",
"C. c #EFCCD2",
"Z. c #DEE0DF",
"A. c #D4E3DE",
"S. c #CCDEE0",
"D. c #D2DFE1",
"F. c #DEDEE1",
"G. c #E1DFE2",
"H. c #CBE4E3",
"J. c #D4E4E4",
"K. c #DDE2E4",
"L. c #D4EDED",
"P. c #DBE8E8",
"I. c #D2F0EF",
"U. c #DDEFF1",
"Y. c #C3FEFD",
"T. c #CDFFFE",
"R. c #CAF9F8",
"E. c #DBF4F2",
"W. c #D7FAF7",
"Q. c #D3FFFE",
"!. c #DAFDFE",
"~. c #D5F4F3",
"^. c #E3E2E4",
"/. c #ECE5E6",
"(. c #E5E8E6",
"). c #EAE9E7",
"_. c #E6E6E9",
"`. c #EAE6EA",
"'. c #EBEAEC",
"]. c #F2E8EC",
"[. c #E8F1EE",
"{. c #EEEEF1",
"}. c #F2EEF2",
"|. c #E5F2F3",
" X c #EBF2F3",
".X c #E6F9F6",
"XX c #E4F6FA",
"oX c #E4FDFD",
"OX c #ECFCFC",
"+X c #F3F2F4",
"@X c #F5F6F9",
"#X c #FAF7FB",
"$X c #F3FFFE",
"%X c #FCFCFD",
/* pixels */
"m.N.N.^.N.B.N.Z.F.G.G.N.F.F.F.F.F.F.n.m.b.b.m.b.N.n.N.N.N.n.n.b.N.n.m.N.N.m.N.N.",
"d.g.d.g.g.g.s.v.d.x.t.z.d.v.+.z.r.l.+.g.{ x.+.l.+.g.@.g.@.g.r.k.+.g.+.v.@.g.r.d.",
"_.'.B.^.N.^.N. XK.(.c.[.^.}.z.`.v.{.M. Xi.}.M.+Xn.@Xc.[.c.+X(.@XM./.N.+Xn.).N.^.",
"K.V.N.F.N.N.m. XU.|.D.[.P.XXc._.c.oXJ. Xi.|.J. Xx.OXM.|.S.OXJ.OXJ.^.v.'.v._.N.F.",
"_.`.G./.N.^.J.J f c z z k g 2..XF v c b f l j 1.J.M f c c M k g I .XN.{.m.'.N._.",
"_.^.N.N.m.N.M.q.p F ,.2.5.g J W.7.a m 8.T 8.v J j.i ,.8.a H 6.J x XXm.).v._.N.B.",
"n.v.v.v.v.n.l.T.m 5.Y.!.T.F M H.R.H R T.p.!.L V 4.a R.Q.V 1.Y.2.a P.g.N.g.b.g.n.",
"'.)._.)._._.^.$Xb u.!.w.:.C.0. XW.C ;.OX&.E j.u.j.:.P..XN 3.E.C.;. XN.}.m.'.N.^.",
"`.^.G.^.B.^.^.OXm g D u P oXL.].I.I d H u H !.OXN.$Xv..XM 3.E.OX~.`.m.).M.'.m.G.",
"_.^.N.^.^.^.N..Xm n L d I !.b.'.L.K f E y D ~.).v.'.n.|.M :.L.'.n.`.v._.m.`.n.F.",
").G.^._.B.^.K..Xb y.Q.y.>. XN.'.I.C %.oX' 2.M.'.z.'.v..XM 3.P.{.n._.v.).v.'.m.^.",
"G.n.v.m.v.m.g.Q.m 5.a.E.D.m.f.m.Y.H $.T.i.XXg.Z.f.G.c.Q.V 1.Y.K.z.G.g.F.g.N.z.m.",
"^.N.B.G.N.'.{.1.u V *.C.H.^.v. X8.p b *.4.[.v._.v.|.5.-.i N ;.V.M._.n._.m.`.b.B.",
"'._.^.'.`.N.A.P Z G n C.$X(.M.%X=.F G S <. XN.'.N.OX;.C F J C ].K.'.N.{.N.{.N._.",
"'.G.G.G.+Xw , %X$XW.!.X.t /.G.s.W OXOXoXM./.+X^.l./.J.oXW.oXE.'.m.).n._.N.'.N.^.",
"}.).).'.%X8 3 v.[ +X%XU @ %X%X` + _.) N.Q '.! +X%X+X#X+XN.}.^.+X^.}.B.}.^.+X^.'.",
"_.N.Z.^.[.8 w Q = +X).Y - +X).` , X.X s.O l.. ^.] Z.` (.N.^.m.).M.^.n.^.n.^.n.N.",
"N.l.v.v.).6 8 Q , (.Z.t - ^.Z.) :  .$ @.% h.* s.. g.  b.{.B.g.m.g.n.g.n.g.n.d.z.",
"'.Z.(.(.#X0 t _ 3 %X#X) : #X@X} , h.& g.* Z.- n.@ Z.* ^.8 K.m.{.N.'.v._.n.{.v._.",
"(.N.^.Z.+X8 w ) 1 +X[.! ; +X@X] : i.* d.* m.- l.$ m.* Z.o v.Z.'.N._.v._.n.'.v.K.",
").N.(.^.@X0 r ) 2 #X+X! : +X(.] , 4.- d.* M.; v.$ N.* Z.+ m.^.'.F.'.N._.N.'.n.^.",
"+XF._._.#X8 t ) 1 %X%XQ 3 @.6 e., d.- g.- N.; M.& Z.* ^.# ^.%X@XK.+Xn.{.F.+XF._.",
"M.z.v.z.^.4 0 Y 1 g.+.U 2 / : } > } & @.% e.* s.@ f.@ k.+ g.} n.v.N.z.N.z.N.z.n.",
"^.N.F.'.%X6 r Q e ^ 3 [ 4 ] 3 X.> @.* i.* g.; k.@ v.& N.$ g.. l.@X_._.^.v.(.x.N.",
"{.}.#Xl.'.q Y / t ` w } 6 } 4 e., d.- d.= m.; M.& m.* ^.% m.+ B.n.'.7 v.^. Xn.^.",
"@X^ +.7 ^ ~ Q Q r ) w ] 4 ] 4 @., +.; s.= l.: k.% v.* N.% v.@ M.* N.  +.%X'.}.'.",
"%X* ~ r ) ! ! ! t ) t [ 6 [ 6 @.1 r.: d.; v.> b.& m.* Z.* N.@ N.@ F.@ g.^ _.^ g.",
"%X> ) q ) Y Q Y r ^ w _ 6 ` 3 } , X.: r.- g.: l.& g.& n.& n.@ b.& N.$ v.X x.X { ",
"e.4 ^ 8 / e U t w Q q ) 6 ) 3 { , } : @.& e.; g.& g.% v.@ g.@ g.& v.# h.% g.& } ",
"i.w _ 0 _ Y ^ Y Y / Y ` 7 ` 7  .1 o.> i.- l.> l.* v.& Z.= N.@ N.* V.@ M.* M.& +.",
"k.7 _ 8 _ t ^ t t ~ t ` 7 ` 6 } 1 @., 7.; k.> v.* v.& N.* N.@ m.* Z.$ v.& N.& @.",
"l.8 ` 8 ] t / Y Y ^ W ` 0 ] 7  .1 @., i.; l.> m.= m.& ^.= ^.$ N.* ^.$ M.* N.& +.",
"l.8 ] 0 [ t ) Q Q ^ Q ` w ] 9  .2 O.< s.: v., M.- m.* ^.- K.@ B.* ).$ N.* G.& s.",
"@.4 ^ 6 ^ 0 Q 0 e e w ! 7 ~ 4 ] < [ : X.- O.; r.* t.@ f.$ d.# s.% g.# e.@ s.# { ",
"e.3 ) 3 ) 9 Q q e w e ! 5 ^ 3 ] > { - o.& r.& d.@ d.+ z.# z.X z.+ v.X g.O g.X | ",
"Z.8 } t ..~ [ / _ ( ) } / [ e o.0 r.4 d.4 z.1 v.2 z.> ^.1 ^.- F., ).- M., N.: d.",
"A.^.^.+.@.B.^.g.t.m.m.+.r.m.x.t.r.m.g.F.r.v.F.'.s.{.x.K.g.`.x.x.d.N.v.'.+.+Xz.M.",
"@.%Xi.` t ^.x.] ) F.t.( ^ f.O.Y _ f.r.} ] X.%X^.~ }./.| ] f.}.( } d.%X{.9 N.+X{ ",
"'.e / @XX.( ^ @X` Q r @XO.[ _ }.o.! 9 `.+.U 8 F.N.( ] q v.m.5 m.K.Q } _ +.{.w o.",
"#X7.c.%Xv.g.x.%Xz.d.f.%XG.n.x.%XG.d.+.#XF.s.o.+X+Xi.g.t.#X'.} '.@X@.g.f.'.%XX.N."
};
